<svg width="20" height="26" viewBox="0 0 20 26" fill="none" xmlns="http://www.w3.org/2000/svg">
<path d="M7.45047 0.654755C7.63399 0.65469 7.81414 0.717266 7.97208 0.835932C8.13001 0.954598 8.25991 1.12499 8.34818 1.32927L8.40039 1.47223L10.4476 7.97043C10.5301 8.23187 10.5434 8.52023 10.4856 8.79213C10.4278 9.06402 10.3021 9.30472 10.1272 9.47801L10.0249 9.56639L8.31133 10.8712L8.37582 11.0051C9.19139 12.6491 10.2869 14.0401 11.5818 15.0756L11.6862 15.1561L12.7149 12.9831C12.8289 12.7415 13.0017 12.5535 13.2072 12.4473C13.4126 12.3411 13.6397 12.3225 13.8542 12.3944L13.9719 12.4451L19.09 15.0444C19.2604 15.1307 19.4094 15.2736 19.5215 15.4581C19.6335 15.6426 19.7044 15.862 19.7267 16.0932L19.7339 16.2504V21.449C19.7339 23.6025 18.3591 25.3479 16.6016 25.3453C7.82 24.6682 0.819484 15.78 0.285156 4.55368C0.285113 3.55918 0.584385 2.60225 1.12174 1.87868C1.6591 1.15511 2.39392 0.719597 3.17585 0.661253L3.35601 0.654755H7.45047Z" fill="black" fill-opacity="0.7"/>
</svg>
