<svg width="72" height="72" viewBox="0 0 72 72" fill="none" xmlns="http://www.w3.org/2000/svg">
<g id="iconoir:brain-electricity">
<g id="Group">
<path id="Vector" d="M21.2627 42.2146C19.976 42.2165 18.7053 42.4992 17.5392 43.0429C16.3731 43.5866 15.3397 44.3782 14.5111 45.3625C13.6825 46.3468 13.0787 47.5001 12.7418 48.7418C12.405 49.9836 12.3431 51.2839 12.5606 52.552C12.7781 53.8201 13.2698 55.0255 14.0012 56.084C14.7326 57.1425 15.6863 58.0286 16.7955 58.6805C17.9048 59.3324 19.1429 59.7344 20.4235 59.8584C21.7042 59.9824 22.9965 59.8255 24.2102 59.3985" stroke="black" stroke-width="4.42125" stroke-linecap="round" stroke-linejoin="round"/>
<path id="Vector_2" d="M13.1982 46.9452C11.4343 46.096 9.90965 44.821 8.7618 43.2352C7.61394 41.6493 6.87904 39.8026 6.62341 37.8617C6.36778 35.9208 6.59948 33.9468 7.29759 32.1179C7.99569 30.2889 9.13824 28.6626 10.6221 27.3856M10.7105 27.1469C9.74388 25.7004 9.3202 23.9585 9.5145 22.2297C9.7088 20.5008 10.5085 18.8964 11.7722 17.7006C13.0358 16.5047 14.6817 15.7945 16.4187 15.6958C18.1556 15.597 19.8715 16.1159 21.2626 17.1607M21.9641 17.3523C21.4939 16.3533 21.2542 15.2613 21.2628 14.1571C21.2714 13.053 21.528 11.9649 22.0137 10.9732C22.4994 9.9816 23.2017 9.11179 24.0688 8.42811C24.9359 7.74442 25.9455 7.26434 27.0231 7.02335C28.1006 6.78235 29.2186 6.78661 30.2943 7.0358C31.37 7.285 32.376 7.77275 33.2378 8.46302C34.0996 9.15329 34.7953 10.0284 35.2734 11.0237C35.7516 12.019 35.9999 13.1091 36.0001 14.2132M36.0001 14.2132V59.8995M36.0001 14.2132C36.0003 13.1091 36.2486 12.019 36.7267 11.0237C37.2048 10.0284 37.9005 9.15329 38.7624 8.46302C39.6242 7.77275 40.6302 7.285 41.7059 7.0358C42.7816 6.78661 43.8995 6.78235 44.9771 7.02335C46.0547 7.26434 47.0643 7.74442 47.9314 8.42811C48.7984 9.11179 49.5008 9.9816 49.9865 10.9732C50.4721 11.9649 50.7288 13.053 50.7374 14.1571C50.7459 15.2613 50.5063 16.3533 50.0361 17.3523M36.0001 59.8995C36.0001 61.4629 35.379 62.9624 34.2735 64.0679C33.1679 65.1734 31.6685 65.7945 30.1051 65.7945C28.5416 65.7945 27.0422 65.1734 25.9367 64.0679C24.8312 62.9624 24.2101 61.4629 24.2101 59.8995M36.0001 59.8995C36.0001 61.4629 36.6212 62.9624 37.7267 64.0679C38.8322 65.1734 40.3316 65.7945 41.8951 65.7945M36.0001 21.582C36.0001 23.9272 36.9317 26.1763 38.59 27.8346C40.2483 29.4929 42.4974 30.4245 44.8426 30.4245M61.3781 27.3856C62.6649 28.4911 63.6974 29.862 64.4046 31.404C65.1118 32.9461 65.477 34.623 65.4751 36.3195C65.4751 38.3916 64.9416 40.3399 64.0013 42.0317M61.2896 27.1469C62.2563 25.7004 62.68 23.9585 62.4857 22.2297C62.2914 20.5008 61.4916 18.8964 60.228 17.7006C58.9644 16.5047 57.3184 15.7945 55.5815 15.6958C53.8445 15.597 52.1286 16.1159 50.7376 17.1607M55.6511 48.1095L50.7376 56.952H62.5276L57.6141 65.7945" stroke="black" stroke-width="4.42125" stroke-linecap="round" stroke-linejoin="round"/>
</g>
</g>
</svg>
