<svg width="66" height="66" viewBox="0 0 66 66" fill="none" xmlns="http://www.w3.org/2000/svg">
<g id="icon-park-twotone:lamp">
<g id="Mask group">
<mask id="mask0_19_288" style="mask-type:luminance" maskUnits="userSpaceOnUse" x="11" y="5" width="44" height="56">
<g id="Group">
<g id="Group_2">
<path id="Vector" d="M19.5586 13.2506C19.5586 11.9871 20.0605 10.7754 20.954 9.88193C21.8474 8.9885 23.0591 8.48657 24.3226 8.48657C25.5861 8.48657 26.7979 8.9885 27.6913 9.88193C28.5848 10.7754 29.0867 11.9871 29.0867 13.2506V28.9039H19.5586V13.2506ZM37.2536 13.2506C37.2536 11.9871 37.7555 10.7754 38.649 9.88193C39.5424 8.9885 40.7542 8.48657 42.0177 8.48657C43.2812 8.48657 44.4929 8.9885 45.3863 9.88193C46.2798 10.7754 46.7817 11.9871 46.7817 13.2506V28.9039H37.2536V13.2506Z" fill="#555555" stroke="white" stroke-width="5.44462"/>
<path id="Vector_2" d="M25.0032 46.5989H41.337V57.4881H25.0032V46.5989Z" stroke="white" stroke-width="5.44462" stroke-linecap="round" stroke-linejoin="round"/>
<path id="Vector_3" d="M14.114 30.2651C14.114 29.9041 14.2574 29.5579 14.5127 29.3026C14.768 29.0473 15.1142 28.9039 15.4752 28.9039H50.8652C51.2262 28.9039 51.5724 29.0473 51.8277 29.3026C52.083 29.5579 52.2264 29.9041 52.2264 30.2651V35.7097C52.2264 38.5977 51.0791 41.3674 49.037 43.4096C46.9948 45.4517 44.2251 46.5989 41.3371 46.5989H25.0033C22.1152 46.5989 19.3455 45.4517 17.3034 43.4096C15.2613 41.3674 14.114 38.5977 14.114 35.7097V30.2651Z" stroke="white" stroke-width="5.44462"/>
</g>
</g>
</mask>
<g mask="url(#mask0_19_288)">
<path id="Vector_4" d="M0.502441 0.31958H65.8379V65.655H0.502441V0.31958Z" fill="black"/>
</g>
</g>
</g>
</svg>
