<svg width="82" height="82" viewBox="0 0 82 82" fill="none" xmlns="http://www.w3.org/2000/svg">
<g id="lets-icons:lamp-light">
<g id="Group">
<path id="Vector" d="M59.3619 33.7577C59.3619 39.8341 56.4418 45.2354 51.9217 48.6213L53.9471 51.3219C56.6779 49.2801 58.8945 46.6291 60.4206 43.5799C61.9466 40.5307 62.74 37.1675 62.7377 33.7577H59.3619ZM40.7951 15.191C45.7193 15.191 50.4419 17.1471 53.9238 20.629C57.4058 24.111 59.3619 28.8335 59.3619 33.7577H62.7377C62.7377 27.9382 60.4259 22.357 56.3108 18.242C52.1958 14.127 46.6146 11.8152 40.7951 11.8152V15.191ZM22.2283 33.7577C22.2283 28.8335 24.1845 24.111 27.6664 20.629C31.1484 17.1471 35.8709 15.191 40.7951 15.191V11.8152C34.9756 11.8152 29.3944 14.127 25.2794 18.242C21.1643 22.357 18.8525 27.9382 18.8525 33.7577H22.2283ZM29.6685 48.6213C27.3568 46.8941 25.4804 44.6509 24.1887 42.0704C22.897 39.4899 22.2257 36.6435 22.2283 33.7577H18.8525C18.8502 37.1675 19.6436 40.5307 21.1696 43.5799C22.6957 46.6291 24.9123 49.2801 27.6431 51.3219L29.6685 48.6213ZM35.7213 66.6817C35.6184 61.7453 34.5985 56.8711 32.7135 52.3076L29.5943 53.5938C31.3159 57.7595 32.2544 62.2257 32.3489 66.7526L35.7247 66.6851L35.7213 66.6817ZM46.0782 66.361C44.4378 67.181 42.629 67.608 40.7951 67.608C38.9612 67.608 37.1524 67.181 35.512 66.361L34.003 69.3823C36.112 70.4365 38.4374 70.9853 40.7951 70.9853C43.1528 70.9853 45.4782 70.4365 47.5872 69.3823L46.0782 66.361ZM48.8801 52.3076C46.9939 56.8709 45.9728 61.7451 45.8689 66.6817L49.2447 66.7526C49.3358 62.2257 50.2743 57.7629 51.9959 53.5972L48.8767 52.3076H48.8801ZM47.5872 69.3823C48.0763 69.1363 48.489 68.7613 48.7805 68.2979C49.0721 67.8344 49.2314 67.3001 49.2413 66.7526L45.8655 66.6851C45.8677 66.6167 45.8887 66.5503 45.9262 66.4931C45.9637 66.4359 46.0163 66.3902 46.0782 66.361L47.5872 69.3823ZM32.3489 66.7526C32.3588 67.3001 32.5182 67.8344 32.8097 68.2979C33.1012 68.7613 33.5139 69.1363 34.003 69.3823L35.512 66.361C35.5727 66.3904 35.6243 66.4358 35.6612 66.4923C35.6981 66.5488 35.7188 66.6143 35.7213 66.6817L32.3455 66.7526H32.3489ZM27.6431 51.3253C28.7166 52.1287 28.9596 52.3279 29.0609 52.4596L31.7278 50.3902C31.272 49.8028 30.5361 49.2762 29.6685 48.6213L27.6431 51.3219V51.3253ZM32.7135 52.3076C32.4198 51.5987 32.1734 50.9675 31.7278 50.3902L29.0609 52.4596C29.1689 52.6013 29.2432 52.7465 29.5943 53.5938L32.7135 52.3076ZM51.9217 48.6247C51.0541 49.2728 50.3182 49.8062 49.8624 50.3902L52.5293 52.4596C52.6306 52.3279 52.8703 52.1287 53.9471 51.3219L51.9217 48.6213V48.6247ZM51.9959 53.5972C52.347 52.7499 52.4213 52.6013 52.5327 52.4596L49.8658 50.3902C49.4168 50.9675 49.1704 51.5987 48.8767 52.3076L51.9959 53.5972Z" fill="black"/>
<path id="Vector_2" d="M49.2346 55.7003C43.8169 57.8672 37.7734 57.8672 32.3557 55.7003" stroke="black" stroke-width="3.37578"/>
<path id="Vector_3" d="M37.4194 47.2609V32.9138C37.4194 30.5845 35.529 28.6941 33.1997 28.6941C30.8704 28.6941 28.98 30.5845 28.98 32.9138C28.98 35.2431 30.8704 37.1335 33.1997 37.1335H48.3907C50.72 37.1335 52.6104 35.2431 52.6104 32.9138C52.6104 30.5845 50.72 28.6941 48.3907 28.6941C46.0614 28.6941 44.171 30.5845 44.171 32.9138V47.2609" stroke="black" stroke-width="3.37578" stroke-linecap="round"/>
</g>
</g>
</svg>
