<svg width="31" height="32" viewBox="0 0 31 32" fill="none" xmlns="http://www.w3.org/2000/svg">
<circle cx="15.5702" cy="15.9739" r="15.2816" fill="#131313"/>
<path d="M19.7034 5.76956C20.6501 5.81309 21.3045 5.95222 21.9092 6.18694C22.4826 6.40131 23.0017 6.7394 23.4295 7.17715C23.8673 7.60501 24.2053 8.12408 24.4197 8.69743C24.6544 9.3029 24.7936 9.95656 24.8371 10.9032C24.8907 12.0769 24.8969 12.4904 24.8969 15.0366C24.8969 17.5828 24.8907 17.9963 24.8371 19.17C24.7936 20.1167 24.6544 20.7711 24.4197 21.3766C24.2052 21.9496 23.8672 22.4684 23.4295 22.8961C23.0017 23.3338 22.4826 23.6719 21.9092 23.8863C21.3038 24.121 20.6501 24.2601 19.7034 24.3036C18.5298 24.3573 18.1171 24.3635 15.5701 24.3635C13.023 24.3635 12.6095 24.3573 11.4367 24.3036C10.49 24.2601 9.83557 24.121 9.2301 23.8863C8.65701 23.6718 8.13821 23.3337 7.71059 22.8961C7.27285 22.4682 6.93476 21.9491 6.72039 21.3758C6.48566 20.7703 6.34654 20.1167 6.30301 19.17C6.24938 17.9979 6.24316 17.5844 6.24316 15.0366C6.24316 12.4896 6.24938 12.0753 6.30301 10.9032C6.34654 9.95656 6.48566 9.30212 6.72039 8.69743C6.93476 8.12408 7.27285 7.60501 7.71059 7.17715C8.13823 6.73949 8.65703 6.40141 9.2301 6.18694C9.83635 5.95222 10.49 5.81309 11.4367 5.76956C12.6088 5.71593 13.0223 5.70972 15.5701 5.70972C18.1171 5.70972 18.5313 5.71593 19.7034 5.76956ZM15.5701 7.78262C13.0518 7.78262 12.6663 7.78806 11.5307 7.84013C10.8102 7.87278 10.3781 7.96449 9.98092 8.11916C9.67606 8.2297 9.4006 8.40865 9.17569 8.64225C8.9416 8.86675 8.76257 9.14233 8.65261 9.44747C8.49872 9.84386 8.40623 10.2768 8.37358 10.9973C8.32151 12.1328 8.31607 12.5183 8.31607 15.0366C8.31607 17.5549 8.32151 17.9404 8.37358 19.0759C8.40623 19.7964 8.49794 20.2286 8.65261 20.625C8.78474 20.9638 8.92464 21.1791 9.17569 21.431C9.42752 21.6828 9.64282 21.8227 9.98092 21.9541C10.3773 22.1079 10.8102 22.2004 11.5307 22.2331C12.6671 22.2852 13.0526 22.2906 15.5701 22.2906C18.0883 22.2906 18.473 22.2852 19.6094 22.2331C20.3299 22.2004 20.762 22.1087 21.1592 21.9541C21.464 21.8435 21.7395 21.6646 21.9644 21.431C22.2162 21.1791 22.3561 20.9638 22.4875 20.6257C22.6414 20.2294 22.7339 19.7964 22.7665 19.0759C22.8186 17.9396 22.824 17.5541 22.824 15.0366C22.824 12.5191 22.8186 12.1336 22.7665 10.9973C22.7339 10.2768 22.6422 9.84464 22.4875 9.44825C22.3776 9.14285 22.1986 8.86701 21.9644 8.64225C21.7397 8.40807 21.4638 8.22905 21.1584 8.11916C20.762 7.96527 20.3291 7.87278 19.6086 7.84013C18.473 7.78806 18.0875 7.78262 15.5693 7.78262H15.5701ZM15.5701 19.8726C14.2875 19.8726 13.0574 19.3631 12.1505 18.4562C11.2436 17.5492 10.7341 16.3192 10.7341 15.0366C10.7341 13.754 11.2436 12.524 12.1505 11.617C13.0574 10.7101 14.2875 10.2006 15.5701 10.2006C16.8526 10.2006 18.0827 10.7101 18.9896 11.617C19.8965 12.524 20.406 13.754 20.406 15.0366C20.406 16.3192 19.8965 17.5492 18.9896 18.4562C18.0827 19.3631 16.8526 19.8726 15.5701 19.8726ZM15.5701 17.8005C16.3031 17.8005 17.0061 17.5093 17.5244 16.991C18.0427 16.4726 18.3339 15.7696 18.3339 15.0366C18.3339 14.3036 18.0427 13.6006 17.5244 13.0823C17.0061 12.5639 16.3031 12.2727 15.5701 12.2727C14.837 12.2727 14.134 12.5639 13.6157 13.0823C13.0974 13.6006 12.8062 14.3036 12.8062 15.0366C12.8062 15.7696 13.0974 16.4726 13.6157 16.991C14.134 17.5093 14.837 17.8005 15.5701 17.8005ZM20.406 11.2367C20.1312 11.2367 19.8675 11.1275 19.6732 10.9331C19.4788 10.7387 19.3696 10.4751 19.3696 10.2002C19.3696 9.92534 19.4788 9.66172 19.6732 9.46734C19.8675 9.27297 20.1312 9.16377 20.406 9.16377C20.6809 9.16377 20.9446 9.27297 21.1389 9.46734C21.3333 9.66172 21.4425 9.92534 21.4425 10.2002C21.4425 10.4751 21.3333 10.7387 21.1389 10.9331C20.9446 11.1275 20.6809 11.2367 20.406 11.2367Z" fill="white"/>
</svg>
