<svg width="73" height="73" viewBox="0 0 73 73" fill="none" xmlns="http://www.w3.org/2000/svg">
<g id="logos:whatsapp-icon" clip-path="url(#clip0_5_56)">
<path id="Vector" d="M2.36479 35.8828C2.36312 41.9416 3.94623 47.8576 6.95649 53.0721L2.0769 70.8882L20.3095 66.1076C25.3524 68.8529 31.0026 70.2914 36.7444 70.2918H36.7595C55.7141 70.2918 71.1435 54.8679 71.1516 35.9099C71.1553 26.7235 67.581 18.0851 61.087 11.5861C54.5941 5.0876 45.9588 1.50687 36.7581 1.50268C17.8013 1.50268 2.3729 16.9257 2.36507 35.8828" fill="url(#paint0_linear_5_56)"/>
<path id="Vector_2" d="M1.13696 35.8716C1.135 42.1484 2.77486 48.276 5.89245 53.6772L0.837891 72.132L19.7243 67.18C24.9281 70.0173 30.7871 71.5132 36.7489 71.5154H36.7643C56.3989 71.5154 72.3826 55.5367 72.391 35.9001C72.3943 26.3836 68.6915 17.4347 61.9655 10.7028C55.2386 3.97179 46.2945 0.262214 36.7643 0.258301C17.1263 0.258301 1.14479 16.2348 1.13696 35.8716ZM12.3842 52.747L11.679 51.6276C8.7146 46.914 7.14994 41.467 7.15217 35.8739C7.1586 19.5522 20.4418 6.27323 36.7754 6.27323C44.6854 6.27659 52.1191 9.36008 57.7103 14.9546C63.3012 20.5498 66.3777 27.9874 66.3758 35.8979C66.3685 52.2195 53.0851 65.5002 36.7643 65.5002H36.7525C31.4383 65.4974 26.2264 64.0702 21.6811 61.3733L20.5994 60.7318L9.39184 63.6703L12.3842 52.7467V52.747Z" fill="url(#paint1_linear_5_56)"/>
<path id="Vector_3" d="M27.8596 20.983C27.1927 19.5008 26.4909 19.4709 25.8567 19.4449C25.3374 19.4225 24.7437 19.4242 24.1506 19.4242C23.5569 19.4242 22.5924 19.6475 21.777 20.5377C20.9609 21.4288 18.6611 23.5821 18.6611 27.9616C18.6611 32.3415 21.8511 36.574 22.2958 37.1685C22.7411 37.7619 28.4541 47.037 37.5022 50.6051C45.022 53.5704 46.5523 52.9806 48.1843 52.8319C49.8166 52.6838 53.4513 50.6792 54.1928 48.6005C54.9349 46.5221 54.9349 44.7406 54.7124 44.3683C54.4899 43.9974 53.8963 43.7746 53.0061 43.3296C52.1156 42.8844 47.7391 40.7308 46.9232 40.4337C46.1071 40.1369 45.5137 39.9887 44.92 40.8801C44.3263 41.77 42.6216 43.7746 42.102 44.3683C41.583 44.9633 41.0634 45.0374 40.1735 44.5921C39.2827 44.1455 36.4158 43.2066 33.0145 40.1743C30.3682 37.8147 28.5816 34.9009 28.0623 34.0096C27.5429 33.1196 28.0066 32.6372 28.453 32.1936C28.853 31.7948 29.3435 31.1541 29.789 30.6345C30.2329 30.1147 30.381 29.7438 30.6779 29.1501C30.975 28.5559 30.8263 28.036 30.6041 27.5907C30.381 27.1455 28.6512 22.743 27.8596 20.983Z" fill="white"/>
</g>
<defs>
<linearGradient id="paint0_linear_5_56" x1="3455.81" y1="6940.06" x2="3455.81" y2="1.50268" gradientUnits="userSpaceOnUse">
<stop stop-color="#1FAF38"/>
<stop offset="1" stop-color="#60D669"/>
</linearGradient>
<linearGradient id="paint1_linear_5_56" x1="3578.49" y1="7187.63" x2="3578.49" y2="0.258301" gradientUnits="userSpaceOnUse">
<stop stop-color="#F9F9F9"/>
<stop offset="1" stop-color="white"/>
</linearGradient>
<clipPath id="clip0_5_56">
<rect width="71.5531" height="72.1121" fill="white" transform="translate(0.837891 0.258301)"/>
</clipPath>
</defs>
</svg>
